<?xml version="1.0" encoding="UTF-8"?>
<svg width="100px" height="23px" viewBox="0 0 100 23" version="1.1" xmlns="http://www.w3.org/2000/svg" xmlns:xlink="http://www.w3.org/1999/xlink">
  <g stroke="none" stroke-width="1" fill="none" fill-rule="evenodd">
    <g fill-rule="nonzero">
      <path d="M12.3392034,0 C13.0040828,0.119449494 13.680942,0.197091665 14.3338416,0.358348481 C18.8382498,1.46922877 22.2524954,5.27966762 22.8874253,9.87847312 C23.7320018,15.9942872 19.7427254,21.5845235 13.6629723,22.7969359 C13.2257092,22.886523 12.7764664,22.9343028 12.3332135,23 C10.2966459,23 8.26007837,23 6.22351082,23 C6.22351082,19.1477538 6.22351082,15.2955077 6.22950073,11.449234 C6.22950073,11.1924176 6.25346034,10.9296287 6.29538968,10.6787847 C6.69072338,8.09270319 9.05673567,6.13970397 11.6503643,6.24123604 C14.3877507,6.35471306 16.5860457,8.46299662 16.7597529,11.1506102 C17.0173188,15.1402233 12.9441837,17.9413139 9.29633185,16.280966 C9.21846309,16.2451311 9.14059433,16.2152688 9.02678615,16.1734614 C9.02678615,17.3978187 9.02079624,18.5803687 9.03876596,19.7629187 C9.03876596,19.8345884 9.17653376,19.942093 9.26638233,19.9659829 C10.4344137,20.3004414 11.6264047,20.3661387 12.8243856,20.1750195 C17.8918449,19.3627629 21.1623328,14.5668657 20.0661802,9.58582186 C19.0538864,4.97507141 14.42968,1.9589717 9.82344345,2.89665022 C5.65446989,3.73279668 2.74337628,7.28044664 2.73139647,11.5328486 C2.72540657,15.2537003 2.73139647,18.9745521 2.73139647,22.6954038 C2.73139647,22.7969359 2.74337628,22.8924955 2.75535609,22.9940275 C1.8389007,22.9940275 0.916455395,22.9940275 0,22.9940275 C0,18.87302 0,14.7520125 0,10.6310049 C0.0359394273,10.3980784 0.0778687591,10.1651519 0.107818282,9.92625292 C0.742748164,5.28564009 4.13902404,1.4871462 8.6973414,0.352376006 C9.34425109,0.19111919 10.0091305,0.113477019 10.6620301,0 C11.2190912,0 11.7821422,0 12.3392034,0 Z" fill="#E6461A"></path>
      <path d="M100,15.9937776 C99.3776435,15.9937776 98.755287,15.9937776 98.0845921,15.9937776 C98.0845921,15.5146555 98.0845921,15.0417558 98.0845921,14.568856 C98.0785498,12.7332583 98.0845921,10.8976606 98.0664653,9.06206283 C98.0483384,7.62469647 96.9969789,6.33044451 95.6314199,6.03799335 C93.7583082,5.63353962 91.8549849,7.19535327 91.8489426,9.1740654 C91.8429003,11.3207814 91.8549849,13.4674974 91.8610272,15.6142134 C91.8610272,15.7386607 91.8610272,15.8568856 91.8610272,16 C91.2265861,16 90.6283988,16 90,16 C90,12.2105796 90,8.42115921 90,4.600627 C90.5981873,4.600627 91.2024169,4.600627 91.8429003,4.600627 C91.8429003,4.78729795 91.8429003,4.98019127 91.8429003,5.22908588 C92.4471299,4.67529538 93.0876133,4.33306529 93.8126888,4.14639434 C96.6646526,3.40593288 99.6495468,5.5650936 99.939577,8.57671834 C99.9456193,8.66383146 99.9758308,8.75716693 99.9939577,8.84428005 C100,11.2212235 100,13.6106118 100,15.9937776 Z" fill="#222C31"></path>
      <path d="M28.8464073,15.4512918 C28.8464073,17.296814 28.8464073,19.1362654 28.8464073,21 C28.2203106,21 27.6299908,21 27.0217826,21 C27.0158197,20.9210796 27.0038941,20.8421593 27.0038941,20.7632389 C27.0038941,17.5335751 26.9919684,14.3099821 27.0098569,11.0803182 C27.0277454,8.16026501 29.0372177,5.69552155 31.8397458,5.11879587 C35.2087424,4.42672504 38.5061851,6.83683133 38.9474342,10.309327 C39.3827205,13.7332564 37.0691441,16.8050795 33.6941847,17.2178937 C31.9232254,17.4303715 30.396742,16.8111503 29.0849203,15.6091325 C29.025292,15.5544954 28.9954779,15.4573626 28.9477753,15.3784423 C28.9119983,15.4027255 28.8821842,15.4270086 28.8464073,15.4512918 Z M33.0144225,15.3845276 C35.3220361,15.3784423 37.1645493,13.4843537 37.1645493,11.1288846 C37.1585864,8.77948627 35.292222,6.87932691 32.996534,6.89141063 C30.6948833,6.90361009 28.8464073,8.79769866 28.8523557,11.1531678 C28.8464073,13.4964953 30.7068089,15.3905839 33.0144225,15.3845276 Z" fill="#222C31"></path>
      <path d="M66.6728653,13.4489363 C67.5549586,14.792243 69.4204669,15.4579524 71.0714119,15.0181087 C72.0786671,14.7506361 72.8832793,14.1740841 73.461408,13.3122281 C74.0395368,12.4503721 74.2541,11.4874708 74.1289381,10.4354121 C74.7547476,10.4354121 75.3567167,10.4354121 75.9527257,10.4354121 C76.2805307,12.7356761 74.9037499,15.7373127 71.8164231,16.7180454 C68.8959789,17.6452836 65.7430912,16.2187633 64.5093525,13.4192171 C63.2696538,10.6077833 64.3603503,7.30895501 67.048351,5.78138948 C69.8317131,4.20032944 72.9488403,5.23455669 74.4031023,6.9642126 C71.8283433,9.12182461 69.2595444,11.2794366 66.6728653,13.4489363 Z M65.8980536,11.6955051 C67.7516416,10.1441642 69.5515889,8.63443016 71.3694164,7.10686463 C69.9807154,6.53031266 68.2105686,6.91666192 67.0841115,8.04004669 C66.0947365,9.03266709 65.7192509,10.2392655 65.8980536,11.6955051 Z" fill="#222C31"></path>
      <path d="M50.9961125,16.4729067 C50.3710675,16.4729067 49.7757866,16.4729067 49.1566944,16.4729067 C49.1566944,16.1042013 49.1566944,15.7533366 49.1566944,15.3489501 C49.0614495,15.4262593 49.0078742,15.4678873 48.9602517,15.5095153 C45.549292,18.4591579 40.2929615,16.8178245 39.185739,12.4587761 C38.1678086,8.4386986 41.4775706,4.61486752 45.6028673,5.03114773 C48.6388,5.34038446 50.9603956,7.86780002 50.9901596,10.9125924 C51.0080181,12.6966505 50.9961125,14.4807085 50.9961125,16.2647666 C50.9961125,16.3242352 50.9961125,16.3837038 50.9961125,16.4729067 Z M40.8465585,10.9958485 C40.84062,13.2794428 42.6919436,15.1527037 44.9659167,15.1646118 C47.2637011,15.1705443 49.1507416,13.3329645 49.1567089,11.0731576 C49.1626472,8.71225416 47.329182,6.84488339 45.0135392,6.84488339 C42.7157549,6.83304636 40.8525256,8.69441358 40.8465585,10.9958485 Z" fill="#222C31"></path>
      <path d="M77.0000099,10.9940436 C77.0059779,7.68780528 79.6990821,5 82.9999222,5 C86.3126787,5 89.0176993,7.71753764 88.9999128,11.023776 C88.9819501,14.3359608 86.2948041,17.0059267 82.9820476,17 C79.6812075,16.9940337 76.9940616,14.300282 77.0000099,10.9940436 Z M82.993964,15.1565739 C85.2938273,15.1565739 87.1647148,13.3012747 87.1647148,11.0059366 C87.1706588,8.71654491 85.2997855,6.8374598 83.0118386,6.83149917 C80.7179335,6.82556686 78.841102,8.69275902 78.8351438,10.9821507 C78.8351438,13.2834353 80.7000589,15.1565739 82.993964,15.1565739 Z" fill="#222C31"></path>
      <path d="M52,5.17288802 C52.3213909,5.17288802 52.6059009,5.17288802 52.9325606,5.17288802 C52.9325606,3.77603143 52.9325606,2.39685658 52.9325606,1 C53.4910432,1 54.0126449,1 54.5658588,1 C54.5658588,2.38506876 54.5658588,3.76424361 54.5658588,5.17288802 C55.3930453,5.17288802 56.1886196,5.17288802 57,5.17288802 C57,5.78585462 57,6.36935167 57,6.99410609 C56.199157,6.99410609 55.398314,6.99410609 54.5711275,6.99410609 C54.5711275,10.0176817 54.5711275,13 54.5711275,16 C54.0231823,16 53.5015806,16 52.9483667,16 C52.9483667,15.870334 52.9483667,15.7583497 52.9483667,15.6463654 C52.9483667,12.8762279 52.943098,10.1060904 52.9536354,7.33595285 C52.9536354,7.07072692 52.8956797,6.96463654 52.6480506,6.99410609 C52.4425711,7.01768173 52.231823,7 52.0052687,7 C52,6.3870334 52,5.80353635 52,5.17288802 Z" fill="#222C31"></path>
      <path d="M60.8121975,6.65059588 C61.6660213,5.86403034 62.6418199,5.32177681 63.768635,5.1191766 C64.1636012,5.04767064 64.5701839,5.04171181 65,5 C65,5.60780065 65,6.15005417 65,6.69230769 C65,6.90086674 64.8489835,6.86511376 64.732817,6.86511376 C63.8383349,6.87703142 63.0367861,7.16901408 62.3455954,7.73510293 C61.3407551,8.55146262 60.7947725,9.624052 60.7773475,10.9469122 C60.7599226,12.5140845 60.7715392,14.0872156 60.7715392,15.6543879 C60.7715392,15.7616468 60.7715392,15.8689057 60.7715392,16 C60.1732817,16 59.5982575,16 59,16 C59,12.3591549 59,8.72426869 59,5.07746479 C59.5634076,5.07746479 60.1326234,5.07746479 60.7366893,5.07746479 C60.7366893,5.58992416 60.7366893,6.10238353 60.7366893,6.6148429 C60.7657309,6.62676056 60.7889642,6.63867822 60.8121975,6.65059588 Z" fill="#222C31"></path>
    </g>
  </g>
</svg>
